<svg xmlns="http://www.w3.org/2000/svg" viewBox="0 0 99.8 100"><path d="M28.9 4.7C57-8.8 91.6 8 98.5 38.5c6.6 28.9-12.4 56.7-41.6 61-27.8 4-53.6-16.1-56.6-44C-1.1 42 2.4 30 10.5 19.3c1.5 1.4 3 2.8 4.6 4.2C1.7 41 3.4 65.8 19.1 81.1 35 96.7 59.6 98.1 77 84.4c17.3-13.7 21.9-38 10.6-56.8C76.1 8.5 52.5 1 32.1 10c-.8-1.9-1.7-3.8-3.2-5.3z"/><path d="M15.1 23.4c-1.5-1.4-3-2.8-4.6-4.2.3-1.1-.5-1.9-.7-2.9-1.3-4.8.4-9.8 4.3-12.6 4.1-2.9 9.6-2.9 13.7.1.4.3.8.6 1.1.9 1.4 1.5 2.4 3.4 3.2 5.3 0 1.1 0 2.2.1 3.3.4 5.4-4 10.4-9.6 11.3-2.6.4-5-.5-7.5-1.2zM50 23c15.1 0 27 12 27 27.2C76.9 64.9 65.4 77 50 77c-15.6 0-27-12.3-27.1-26.9-.2-15 12-27.1 27.1-27.1z"/></svg>