<?xml version="1.0" encoding="UTF-8"?>
<svg id="Layer_1" data-name="Layer 1" xmlns="http://www.w3.org/2000/svg" version="1.1" viewBox="0 0 100 100">
  <defs>
    <style>
      .cls-1 {
        fill: #000;
        stroke-width: 0px;
      }
    </style>
  </defs>
  <path class="cls-1" d="M52.4,56.2h11.3c3.2,0,5.3-1.8,5.3-4.6s-2-4.6-5.3-4.6h-11.3c-.4,0-.7.3-.7.6v8c0,.4.3.6.7.6ZM52.4,74.5h11.7c3.6,0,5.7-1.8,5.7-5.1s-2-5.1-5.7-5.1h-11.7c-.4,0-.7.3-.7.6v8.8c0,.4.3.7.7.7ZM93.9,5.3l-33.5,33.4h5.5c8.5,0,13.6,5.4,13.6,11.2s-3.1,8-6.4,9.5c-.5.2-.5,1,0,1.2,3.9,1.5,6.6,5.5,6.6,10.3s-4.5,12-13.1,12h-23.7c-.4,0-.7-.3-.7-.6v-25.3L5.3,93.6c-.5.5-.2,1.3.5,1.3h88.4c.3,0,.6-.3.6-.6V5.8c.2-.6-.6-.9-1-.5h0Z"/>
</svg>