<?xml version="1.0" encoding="UTF-8"?>
<svg id="Layer_1" data-name="Layer 1" xmlns="http://www.w3.org/2000/svg" version="1.1" viewBox="0 0 100 100">
  <defs>
    <style>
      .cls-1 {
        fill: #000;
        stroke-width: 0px;
      }
    </style>
  </defs>
  <path class="cls-1" d="M96.3,23.9c0,.1,0,.3,0,.4v20.5c0,.5-.3,1-.8,1.3l-17.2,9.9v19.6c0,.5-.3,1-.7,1.3l-35.9,20.6c0,0-.2,0-.3.1,0,0,0,0-.1,0-.3,0-.5,0-.8,0,0,0,0,0-.1,0,0,0-.2,0-.2-.1L4.4,76.8c-.5-.3-.8-.8-.8-1.3V14.1c0-.1,0-.3,0-.4,0,0,0,0,0-.1,0,0,0-.2,0-.2,0,0,0,0,.1-.1,0,0,0-.1.1-.2,0,0,0,0,.1-.1,0,0,.1,0,.2-.1h0L22.4,2.5c.5-.3,1-.3,1.5,0l17.9,10.3h0c0,0,.1,0,.2.1,0,0,.1,0,.1.1,0,0,0,.1.1.2,0,0,0,0,.1.1,0,0,0,.2,0,.2,0,0,0,0,0,.1,0,.1,0,.3,0,.4v38.4l14.9-8.6v-19.6c0-.1,0-.3,0-.4,0,0,0,0,0-.1,0,0,0-.2,0-.2,0,0,0,0,.1-.1,0,0,0-.1.1-.2,0,0,0,0,.1-.1,0,0,.1,0,.2-.1h0l17.9-10.3c.5-.3,1-.3,1.5,0l17.9,10.3c0,0,.1,0,.2.1,0,0,.1,0,.1.1,0,0,0,.1.1.2,0,0,0,0,.1.1,0,0,0,.2,0,.2,0,0,0,0,0,.1h0ZM93.3,43.9v-17l-6.3,3.6-8.7,5v17l14.9-8.6h0ZM75.4,74.7v-17l-8.5,4.9-24.4,13.9v17.2l32.9-18.9ZM6.7,16.7v58l32.9,18.9v-17.2l-17.2-9.7h0s0,0,0,0c0,0-.1,0-.2-.1,0,0-.1,0-.1-.1h0c0,0,0-.1-.1-.2,0,0,0,0-.1-.1h0c0,0,0-.1,0-.2,0,0,0-.1,0-.2h0c0,0,0-.1,0-.2,0,0,0-.1,0-.2h0V25.3l-8.7-5-6.3-3.6h0ZM23.1,5.5l-14.9,8.6,14.9,8.6,14.9-8.6-14.9-8.6h0ZM30.9,59.2l8.7-5V16.7l-6.3,3.6-8.7,5v37.5l6.3-3.6ZM76.9,15.7l-14.9,8.6,14.9,8.6,14.9-8.6-14.9-8.6ZM75.4,35.5l-8.7-5-6.3-3.6v17l8.7,5,6.3,3.6v-17ZM41,73.8l21.9-12.5,11-6.3-14.9-8.6-17.2,9.9-15.7,9,14.9,8.4Z"/>
</svg>