<?xml version="1.0" encoding="UTF-8"?>
<svg id="Layer_1" data-name="Layer 1" xmlns="http://www.w3.org/2000/svg" version="1.1" viewBox="0 0 100 100">
  <defs>
    <style>
      .cls-1 {
        fill: #000;
        stroke-width: 0px;
      }
    </style>
  </defs>
  <path class="cls-1" d="M50,1C22.9,1,1,22.9,1,50c0,27,21.9,49,48.9,49,0,0,0,0,0,0,27.1,0,49-21.9,49-49,0-27.1-22.1-49-49-49ZM27,60.5c1.6,2.1,3.7,3,6.8,3s2.9-.2,4.1-.7c1.2-.5,2.7-1.2,4.5-2.3l5,7.1c-4.1,3.4-8.7,5-14.1,5s-7.8-.9-11-2.7c-3.1-1.8-5.6-4.6-7.1-7.8-1.6-3.4-2.5-7.3-2.5-11.9s.9-8.6,2.5-11.9c1.5-3.4,4-6.2,7.1-8.2,3-2,6.8-2.9,10.9-2.9s5.5.4,7.7,1.2c2.4.9,4.6,2.3,6.6,3.9l-5,6.8c-1.3-.9-2.6-1.7-4.1-2.3-1.2-.5-2.9-.7-4.3-.7-6.1,0-9.1,4.6-9.1,14.1-.2,4.8.7,8.2,2.1,10.3h0,0ZM76,71.6c-1.8,5.5-4.5,9.6-8.2,12.7-3.7,3-8.7,4.6-15,5.2l-1.2-8.4c4.1-.5,7.1-1.4,9.1-2.9.7-.5,2.1-2.1,2.1-2.1l-14.8-47.4h12.3l8.6,35.5,9.1-35.5h11.9l-13.9,42.9Z"/>
</svg>