<svg xmlns="http://www.w3.org/2000/svg" viewBox="0 0 100 100"><path d="M59.3 28.7c0-2.9-4.9-4.3-9.3-4.3-4.5 0-9.4 1.3-9.4 4.3v10.2c0 .7.3 1.2.7 1.8 1.5 1.7 5.2 2.5 8.6 2.5 4.5 0 9.3-1.3 9.3-4.3V28.7zm-2.4 0c0 .1-.1.1-.1.2l-.3.3c-.2.1-.3.2-.5.3h-.1c-.2.1-.4.2-.7.3H55c-.3.1-.5.2-.8.2-.1 0-.2 0-.3.1-.3.1-.5.1-.8.2-.2 0-.3 0-.5.1-.3 0-.5.1-.8.1h-3.1c-3.3-.3-5.3-1.3-5.4-1.8.1-.3.7-.7 1.9-1.1 1.2-.4 2.9-.7 5-.7 2.6 0 4.5.5 5.6.9.1 0 .1 0 .2.1.5.2.9.6.9.8z"/><path d="M99.8 26.4c-.1-.1-.1-.2-.2-.2v-.1c-.1-.1-.1-.1-.2-.1h-.1-.1l-15.6-7.8v-1.6c0-2.9-4.8-4.3-9.3-4.3-.7 0-1.5 0-2.2.1L59.3 5.9V4.3c0-3-4.8-4.3-9.3-4.3-4.5 0-9.4 1.3-9.4 4.3v1.6l-12.8 6.4c-.7-.1-1.5-.1-2.2-.1-4.5 0-9.3 1.3-9.3 4.3v1.6L.7 25.9H.6l-.1.1c-.1 0-.1.1-.2.1 0 0 0 .1-.1.1 0 .1-.1.1-.1.2v.1c0 .1-.1.1-.1.2v47.7c0 .5.3.9.7 1.1l48.8 24.4h.1c.2.1.3.1.5.1s.3 0 .5-.1h.1l48.8-24.4c.4-.2.7-.6.7-1.1V27c-.2-.2-.3-.4-.4-.6zM70 15.2c.6-.2 1.3-.3 2.1-.4.7-.1 1.4-.1 2.3-.1 4.3 0 6.8 1.3 6.9 1.8v.1c0 .1-.1.1-.1.2l-.1.1-.2.2c-.1.1-.3.2-.5.3h-.1c-.9.4-2.3.8-4.2.9H76c-.5 0-1 .1-1.5.1s-1 0-1.5-.1c-3.3-.3-5.3-1.3-5.4-1.8 0 0 0-.1.1-.1.1-.4.9-.9 2.3-1.2zM50 2.4c4.3 0 6.8 1.3 6.9 1.8-.1.2-.4.5-1.1.8-.1 0-.1 0-.2.1-.2.1-.4.2-.6.2-.2.1-.4.1-.6.2-.1 0-.2.1-.3.1-.3.1-.6.1-.9.2-.1 0-.2 0-.3.1-.3 0-.6.1-.9.1-.2 0-.3 0-.5.1h-3.1c-3.3-.3-5.3-1.3-5.4-1.8.2-.6 2.7-1.9 7-1.9zM25.6 14.6c.8 0 1.6.1 2.3.1.4 0 .8.1 1.1.2.3.1.6.1.9.2h.1c1.3.4 2.1.8 2.3 1.1.1.1.1.1.1.2s-.2.3-.5.5c0 0-.1 0-.1.1-.1.1-.3.2-.5.2-.1.1-.3.1-.5.2-.1 0-.2.1-.3.1-.2.1-.5.2-.8.2h-.2c-.3.1-.7.1-1 .2h-.2c-.3 0-.6.1-.9.1h-3.5c-3.3-.3-5.3-1.3-5.4-1.8.3-.3 2.8-1.6 7.1-1.6zm23.2 82.2L2.4 73.6v-21l46.3 23.2v21zM50 50l-1.4-.7L3.9 27l12.3-6.2v5.8c0 .4.1.7.2 1 1 2.2 5.2 3.2 9.1 3.2 4.5 0 9.3-1.3 9.3-4.3v-10c0-1.5-1.4-2.6-3.3-3.3l9-4.5v5.8c0 .4.1.7.2 1 1 2.2 5.2 3.2 9.1 3.2 4.5 0 9.3-1.3 9.3-4.3V8.6l9 4.5c-1.9.7-3.3 1.8-3.3 3.3v10.2c0 2.9 4.8 4.3 9.4 4.3 4.5 0 9.3-1.3 9.3-4.3v-5.8L96.1 27 59.2 45.4 50 50zm47.6 23.6L51.2 96.8v-21l46.3-23.2v21z"/></svg>