<svg xmlns="http://www.w3.org/2000/svg" viewBox="0 0 86.4 100"><path d="M86.4 84.7L71.6 39c5-4 8.2-10.1 8.2-17.1 0-1.7-.1-3.2-.6-4.7h.6c1.1 0 2.1-1 2.1-2.1s-1-2.1-2.1-2.1h-1.9C74.3 5.4 66.7 0 57.7 0 45.6 0 35.6 9.8 35.6 21.9c0 6.9 3.2 13 8.2 17.1l-8.5 26.4-5.5-17.1c3.3-2.8 5.4-6.9 5.4-11.7 0-8.5-6.9-15.3-15.4-15.3S4.4 28.2 4.4 36.6c0 4.6 2.1 8.7 5.4 11.7L.1 78.4c0 .1-.1.4-.1.7 0 5.8 8.5 10.3 19.8 10.3 3.5 0 6.7-.4 9.6-1.2 2.4 6.8 13.9 11.9 28.2 11.9 16.1 0 28.7-6.4 28.7-14.4.2-.5.1-.7.1-1zM40.1 21.9c0-9.7 8-17.8 17.9-17.8 6.5 0 12.3 3.6 15.4 8.9h-26c-2.9 0-5.3 2.4-5.3 5.3v1.8c0 2.9 2.4 5.3 5.3 5.3h3.5c2.9 0 5.3-2.4 5.3-5.3v-1.8c0-.4 0-.7-.1-1.1H58c0 .3-.1.7-.1 1.1v1.8c0 2.9 2.4 5.3 5.3 5.3h3.5c2.9 0 5.3-2.4 5.3-5.3v-1.8c0-.4 0-.7-.1-1.1H75c.4 1.5.7 3.1.7 4.7 0 9.7-8 17.8-17.9 17.8s-17.7-8.1-17.7-17.8zm27.6-3.7V20c0 .6-.4 1.1-1.1 1.1h-3.5c-.6 0-1.1-.4-1.1-1.1v-1.8c0-.6.4-1.1 1.1-1.1h3.5c.7.1 1.1.5 1.1 1.1zm-15.7 0V20c0 .6-.4 1.1-1.1 1.1h-3.5c-.6 0-1.1-.4-1.1-1.1v-1.8c0-.6.4-1.1 1.1-1.1H51c.6.1 1 .5 1 1.1zM8.9 36.5c0-6.1 5-11.1 11.2-11.1s11.2 5 11.2 11.1-5 11.1-11.2 11.1S8.9 42.7 8.9 36.5zM4.4 79.2l9.3-28.7c1.9.8 4 1.4 6.4 1.4 2.2 0 4.4-.6 6.4-1.4l6.9 21.6-3.7 11.7c-2.8 1-6.1 1.4-9.6 1.4-9.3-.2-15.2-3.5-15.7-6zm53.4 16.5c-14.1 0-24.1-5.3-24.4-10l14.3-44.4c3.1 1.5 6.5 2.5 10.1 2.5 3.6 0 7.1-1 10.1-2.5l14.3 44.4c-.2 4.7-10.2 10-24.4 10z"/></svg>