<svg xmlns="http://www.w3.org/2000/svg" viewBox="0 0 100 100"><path d="M55.4 100H44.6c-3.9 0-7.1-3.2-7.1-7.1V78.8c0-1.4 1.1-2.5 2.5-2.5h20c1.4 0 2.5 1.1 2.5 2.5V93c0 3.8-3.2 7-7.1 7zM42.5 81.2v11.7c0 1.1.9 2.1 2.1 2.1h10.9c1.1 0 2.1-.9 2.1-2.1V81.2H42.5zM60 73.8H40c-1 0-1.9-.6-2.3-1.6l-7.5-18.8c-.3-.7-.2-1.5.2-2.2l17.5-30c.8-1.2 2.4-1.5 3.6-.7.3.2.5.4.7.7l17.5 30c.4.7.4 1.5.2 2.2l-7.5 18.8c-.5.9-1.4 1.5-2.4 1.6zm-18.3-5h16.6l6.4-16L50 27.5 35.3 52.7l6.4 16.1z"/><path d="M61.2 81.2H38.8c-3.5 0-6.2-2.8-6.2-6.2s2.8-6.2 6.2-6.2h22.5c3.5 0 6.2 2.8 6.2 6.2s-2.8 6.2-6.3 6.2zm-22.4-7.4c-.7 0-1.2.6-1.2 1.2s.6 1.2 1.2 1.2h22.5c.7 0 1.2-.6 1.2-1.2s-.6-1.2-1.2-1.2H38.8zM50 52.5c-1.4 0-2.5-1.1-2.5-2.5V22.5c0-1.4 1.1-2.5 2.5-2.5s2.5 1.1 2.5 2.5V50c0 1.4-1.1 2.5-2.5 2.5z"/><path d="M50 55c-2.8 0-5-2.2-5-5s2.2-5 5-5 5 2.2 5 5-2.2 5-5 5zm0-5zm0 0zm0 0zm0 0zm0 0zm0 0zm0 0zm0 0z"/><path d="M95 52.5c-1.4 0-2.5-1.1-2.5-2.5 0-23.5-19-42.5-42.5-42.5S7.5 26.5 7.5 50c0 1.4-1.1 2.5-2.5 2.5S2.5 51.4 2.5 50C2.5 23.8 23.8 2.5 50 2.5S97.5 23.8 97.5 50c0 1.4-1.1 2.5-2.5 2.5z"/><path d="M95 7.5H5C3.6 7.5 2.5 6.4 2.5 5S3.6 2.5 5 2.5h90c1.4 0 2.5 1.1 2.5 2.5S96.4 7.5 95 7.5z"/><path d="M50 10c-2.8 0-5-2.2-5-5s2.2-5 5-5 5 2.2 5 5-2.2 5-5 5zm0-5zm0 0zm0 0zm0 0zm0 0zm0 0zm0 0zm0 0zM5 55c-2.8 0-5-2.2-5-5s2.2-5 5-5 5 2.2 5 5-2.2 5-5 5zm0-5zm0 0zm0 0zm0 0zm0 0zm0 0zm0 0zm0 0zM95 55c-2.8 0-5-2.2-5-5s2.2-5 5-5 5 2.2 5 5-2.2 5-5 5zm0-5zm0 0zm0 0zm0 0zm0 0zm0 0zm0 0zm0 0zM95 10c-2.8 0-5-2.2-5-5s2.2-5 5-5 5 2.2 5 5-2.2 5-5 5zm0-5zm0 0zm0 0zm0 0zm0 0zm0 0zm0 0zm0 0zM5 10c-2.8 0-5-2.2-5-5s2.2-5 5-5 5 2.2 5 5-2.2 5-5 5zm0-5zm0 0zm0 0zm0 0zm0 0zm0 0zm0 0zm0 0z"/></svg>