<svg xmlns="http://www.w3.org/2000/svg" viewBox="0 0 100 24.2"><path d="M36.8 0c3.5 0 7 1 9.7 3.2 1.4 1.1 2.5 2.5 3.5 4 1.7-2.8 4.2-5.1 7.3-6.2 3.8-1.4 8-1.3 11.7.1 3.3 1.2 6.1 3.3 8.7 5.6 2 1.8 3.9 3.8 6 5.5 1.1.9 2.3 1.7 3.6 2.2 1.8.6 3.9 0 5.2-1.4 1.2-1.3 1.1-3.5-.2-4.7-.8-.7-2.3-.6-2.9.4-.5.8-.2 1.7.2 2.4-1.1-.8-2.2-1.9-2.1-3.3-.2-1.7 1-3.1 2.5-3.7 2.9-1.1 6.5-.2 8.3 2.4 1.7 2.4 1.9 5.4 1.6 8.2-.4 2.7-1.9 5.1-4.1 6.7-3.1 2.2-7 2.9-10.8 2.8-3.6-.1-7.1-.9-10.5-2.2-5.6-2.2-10.8-5.3-16.5-7.1-1.9-.7-3.9-1.1-6-1.3-1.6 0-3.2-.1-4.7 0-1.9.2-3.7.6-5.5 1.2-5.8 1.8-11.1 5-16.8 7.2-4.7 1.9-10 2.8-15 1.8-2.8-.6-5.7-1.8-7.6-4.1C.8 17.8 0 15.2 0 12.8c-.1-2.4.4-4.9 2-6.7 1.4-1.7 3.8-2.6 6-2.4 1.4.1 2.9.7 3.8 1.9.7.9.7 2.2.4 3.3-.4 1-1.1 1.7-2 2.3.4-.7.7-1.7.2-2.4-.6-1-2.2-1.1-3-.3-1 1-1.2 2.7-.5 4 .7 1.3 2.2 2.1 3.7 2.2 2.2.2 4.1-1.2 5.7-2.5 3.3-2.9 6.4-6.2 10.1-8.6C29.5 1.4 33.1 0 36.8 0z"/></svg>