<svg xmlns="http://www.w3.org/2000/svg" viewBox="0 0 100 100"><path d="M90.9 0H9.1C4.1 0 0 4.1 0 9.1V91c0 5 4.1 9.1 9.1 9.1H91c5 0 9.1-4.1 9.1-9.1V9.1c-.1-5-4.2-9.1-9.2-9.1zM33.4 19.4c3.3 0 6.1 2.6 6.1 6s-2.8 6-6.1 6-6.1-2.6-6.1-6 2.8-6 6.1-6zM74.3 77c-6.2 0-9.2-3.7-9.2-8.7 0-1.4.2-3 .6-4.5l3-10.6c.4-1.2.4-2.2.4-3.2 0-3.4-2.1-5.5-5.4-5.5-4.2 0-7 3-8.4 8.9l-5.8 23.1h-10l1.8-7.2c-3 4.9-7.1 7.9-12.1 7.9-6.1 0-9-3.5-9-8.8 0-1.3.2-3 .5-4.5L25.3 45h-7.1l2.2-8h17.1l-6.7 26.7c-.4 1.7-.6 3.1-.6 4.1 0 1.7.8 2.2 2.2 2.5.8.2 7.2.1 10.7-7.7L47.3 45h-7.2l2.2-8h15.4l-2 9c2.7-5 8.1-9.8 13.4-9.8 5.7 0 10.3 4 10.3 11.8 0 2-.3 4.1-1 6.6l-2.9 10.3c-.3 1.1-.4 2-.4 2.8 0 1.8.7 2.7 2.1 2.7s3.1-1 5-6.5l4 1.5C83.8 73.6 79.6 77 74.3 77z"/></svg>