<svg xmlns="http://www.w3.org/2000/svg" viewBox="0 0 100 100"><path d="M0 0v100h100V0H0zm54.4 78c0 9.7-5.7 14.2-14 14.2-7.5 0-11.9-3.9-14.1-8.6L34 79c1.5 2.6 2.8 4.8 6 4.8 3.1 0 5-1.2 5-5.9v-32h9.4V78zm22.2 14.2c-8.7 0-14.4-4.2-17.1-9.6l7.7-4.4c2 3.3 4.6 5.7 9.3 5.7 3.9 0 6.4-1.9 6.4-4.6 0-3.2-2.6-4.4-6.8-6.2l-2.3-1c-6.8-2.9-11.3-6.5-11.3-14.2 0-7 5.4-12.4 13.8-12.4 6 0 10.3 2.1 13.4 7.5l-7.3 4.7c-1.6-2.9-3.4-4-6-4-2.8 0-4.5 1.7-4.5 4 0 2.8 1.7 4 5.8 5.7l2.3 1c8 3.4 12.5 6.9 12.5 14.8-.3 8.3-6.9 13-15.9 13z"/></svg>