<svg version="1.1" id="Layer_1" xmlns="http://www.w3.org/2000/svg" x="0" y="0" viewBox="0 0 100 99.1" xml:space="preserve"><path class="st0" d="M97.7 73.5l-.4 1.2c-7.6 14.9-21.1 24-40.4 24.4-9 .2-17.6-2.1-23.2-4.6C21.5 89 11.3 78.9 5.8 68.1c-8-15.4-9.4-36.9 7.2-53 .3 0-2 3.5-1.8 3.5l-.5 1.5c-12 37.4 24.9 69.5 60.7 65.8 8.6-.9 19.5-5.6 26.3-12.4"/><path class="st0" d="M76 58.1c9 .1 18.4-4.1 24-10.1-4.9 12.4-19 20.3-37.9 17.8-15.8-2.1-30.9-18.1-32.5-34-1.1-11.6 2.9-18.6 9.6-27-2.3 4.4-3.2 7.8-3.4 10C33.3 39.9 55.9 57.9 76 58.1"/><path class="st0" d="M99.1 26.8c-1.4 3.2-9.5 9.3-13 10C72 39.9 63 33.2 58.2 25.6c-.7-1.1-2-4.2-2.2-5-1.8-6.3-1-15.7 4.5-20.6-1.6 4.6-1.9 10-1 13.5.5 2.1 2.1 5.8 3.7 8.1 2.9 4.2 4.8 5.3 8.5 7.5 1.7 1 3.5 1.8 4.3 2 3.5 1.2 11 4 23.1-4.3"/></svg>