<svg version="1.1" id="Layer_1" xmlns="http://www.w3.org/2000/svg" x="0" y="0" viewBox="0 0 100 42.8" xml:space="preserve"><path class="st0" d="M35.1 9.9c-6 0-11.7 5-11.6 12.9 0 8.1 5.3 12.9 12.4 12.9 3 0 6.2-1.1 8.8-2.8l-2.5-4.4c-1.8 1.1-3.5 1.6-5.3 1.6-3.3 0-5.8-1.6-6.5-5.3h14.9c.1-.6.2-1.7.2-3C45.6 15 42 9.9 35.1 9.9zm-4.6 10.3c.5-3.3 2.5-4.8 4.8-4.8 3 0 4.1 2.1 4.1 4.8h-8.9zM95.7 15.6c0-3.2.5-5.1.5-8.5 0-5.3-2-7.1-6.3-7.1h-3.2v3.8h1c2.2 0 2.7.7 2.7 3.4 0 2.5-.2 5.1-.2 8 0 3.8 1.2 5.3 3.7 5.8v.2c-2.5.6-3.7 2.1-3.7 5.8 0 3 .2 5.3.2 8 0 2.8-.6 3.5-2.7 3.5v.1h-1v3.9h3.2c4.4 0 6.3-1.7 6.3-7.1 0-3.5-.5-5.3-.5-8.5 0-1.7 1.1-3.5 4.3-3.7v-4.3c-3.2.2-4.3-1.6-4.3-3.3zM59.4 20.6c-2.5-1-4.8-1.6-4.8-3.2 0-1.2 1-2 2.8-2 1.8 0 3.4.7 5.3 2.1l3.3-4.4c-2.1-1.6-4.8-3.2-8.6-3.2-5.6 0-9.4 3.2-9.4 7.7 0 4 3.5 6.1 6.5 7.2 2.5 1 5 1.8 5 3.4 0 1.2-1 2.1-3.2 2.1-2.1 0-4.1-.8-6.3-2.5l-3.2 4.8c2.5 2.1 6.2 3.4 9.4 3.4 6.6 0 10.1-3.4 10.1-8s-3.7-6.3-6.9-7.4zM79.2 20.6c-2.5-1-4.8-1.6-4.8-3.2 0-1.2 1-2 2.8-2 1.8 0 3.4.7 5.3 2.1l3.3-4.4c-2.1-1.6-4.8-3.2-8.6-3.2-5.6 0-9.4 3.2-9.4 7.7 0 4 3.5 6.1 6.5 7.2 2.5 1 5 1.8 5 3.4 0 1.2-1 2.1-3.2 2.1-2.1 0-4.1-.8-6.3-2.5l-3.3 4.8c2.5 2.1 6.2 3.4 9.4 3.4 6.6 0 10.1-3.4 10.1-8s-3.6-6.3-6.8-7.4z"/><path class="st0" d="M23.2 29.9c-.6 0-1.3-.5-1.3-2.1V0H10.2C5.7 0 3.8 1.7 3.8 7.1c0 3.5.5 5.5.5 8.5 0 1.7-1.1 3.5-4.3 3.7v4.3c3.2.1 4.3 1.9 4.3 3.6 0 3-.5 4.8-.5 8.4 0 5.3 2 7.1 6.3 7.1h3.2v-3.8h-1c-2.1 0-2.7-.8-2.7-3.5s.2-5 .2-8c0-3.8-1.2-5.3-3.7-5.8v-.2c2.5-.6 3.7-2.1 3.7-5.8 0-3-.2-5.3-.2-8s.6-3.4 2.7-3.4h2.2v23.6c0 5 1.7 8.3 6.7 8.3 1.6 0 2.8-.2 3.7-.6l-.8-5.3c-.5-.3-.7-.3-.9-.3z"/></svg>