<?xml version="1.0" encoding="UTF-8"?>
<svg id="Layer_1" data-name="Layer 1" xmlns="http://www.w3.org/2000/svg" version="1.1" viewBox="0 0 100 100">
  <defs>
    <style>
      .cls-1 {
        fill: #000;
        stroke-width: 0px;
      }
    </style>
  </defs>
  <path class="cls-1" d="M50,2.8C26.9,2.8,8.1,22.4,8.1,46.7s2.2,16,6,22.7c1,1.1,2.2,1.9,3.8,1.9,5.3,0,5-8.2,10.4-8.2s5.6,8.2,10.9,8.2,5-8.2,10.3-8.2,3.7,1.6,5,3.3c-.9-.8-1.9-1.4-3.3-1.4-4.8,0-5.2,6.7-8.7,8.5v17.9c.4,3.6,3.7,6.2,7.3,5.8,3.1-.3,5.5-2.8,5.8-5.8v-23.4c1.2,1.7,2.6,3.3,4.9,3.3,5.3,0,5-8.2,10.3-8.2s3.1,1,4.1,2.3c-.5-.2-1.1-.4-1.7-.4-4.6,0-5.2,6.3-8.4,8.3v9.6c0,3.3,2.6,5.9,5.9,5.9s5.9-2.6,5.9-5.9v-15.3c1.3,1.9,2.6,3.6,5,3.6s4.4-2.9,5.9-5.2c2.8-6.1,4.3-12.7,4.2-19.4,0-24.2-18.7-43.9-41.9-43.9ZM47.7,14.2c11.4,0,20.7,11,20.7,23s-6.1,20.4-20.7,20.4-20.7-8.4-20.7-20.4,9.2-23,20.7-23ZM42.2,20.8c-4.3,0-7.7,3.9-7.7,8.6,0,4.7,3.5,8.5,7.7,8.5,4.3,0,7.8-3.8,7.8-8.5,0,0,0,0,0,0,0-4.7-3.5-8.6-7.8-8.6h0ZM40.9,23.4c2.1,0,3.8,1.8,3.8,4,0,2.2-1.7,3.9-3.8,4-2.1,0-3.9-1.8-3.9-4s1.7-4,3.9-4ZM29.2,65c-4.3,0-5.1,5.4-7.7,7.8v7.1c0,3.3,2.6,5.9,5.9,5.9s5.9-2.6,5.9-5.9v-12.6c-1.1-1.3-2.3-2.3-4.1-2.3h0Z"/>
</svg>