<svg xmlns="http://www.w3.org/2000/svg" viewBox="0 0 86.6 100"><path d="M21.8 52.5c-2 2.3-3.7 4.7-5 6.9-3.6 6-4.5 10.8-2.6 13.3 1.9 2.4 6.8 2.8 13.5.7 3.8-1.2 8.1-3.1 12.4-5.6-2.3-1.5-4.7-3.2-7-5-4.2-3.3-8-6.8-11.3-10.3zM64.5 47.7c2-2.3 3.7-4.7 5-6.9 3.6-6 4.5-10.8 2.6-13.3-1.9-2.4-6.8-2.8-13.5-.7-3.8 1.2-8.1 3.1-12.4 5.6 2.3 1.5 4.7 3.2 7 5 4.2 3.3 8 6.8 11.3 10.3zM62.4 50.1c-3.2-3.5-7-7-11.2-10.3-2.7-2.1-5.4-4-8-5.7-2.7 1.7-5.4 3.6-8 5.7-4.2 3.3-8 6.8-11.2 10.3 3.2 3.5 7 7 11.2 10.3 2.7 2.1 5.4 4 8 5.7 2.7-1.7 5.4-3.6 8-5.7 4.2-3.3 8-6.8 11.2-10.3zm-19.2 6.6c-3.7 0-6.6-3-6.6-6.6 0-3.7 3-6.6 6.6-6.6 3.7 0 6.6 3 6.6 6.6 0 3.7-3 6.6-6.6 6.6zM33.2 37.3c2.3-1.8 4.7-3.5 7-5-4.3-2.5-8.6-4.4-12.4-5.6-6.7-2.1-11.6-1.7-13.5.7-1.9 2.4-1.1 7.2 2.6 13.3 1.4 2.2 3 4.6 5 6.9 3.2-3.4 7-6.9 11.3-10.3zM64.5 52.5c-3.2 3.5-7.1 7-11.4 10.4-2.3 1.8-4.7 3.5-7 5 4.3 2.5 8.6 4.4 12.4 5.6 6.7 2.1 11.6 1.7 13.5-.7 1.9-2.4 1.1-7.2-2.6-13.3-1.3-2.4-3-4.7-4.9-7z"/><path d="M43.3 0L0 25v50l43.3 25 43.3-25V25L43.3 0zm31.2 74.6c-4.7 6-17.5 3.4-31.4-4.9-13.8 8.3-26.7 10.8-31.3 4.9-4-5.1-.4-14.6 7.9-24.5-8.4-9.9-11.9-19.4-7.9-24.5 4.7-6 17.5-3.4 31.4 4.9 13.9-8.3 26.7-10.8 31.4-4.9 4 5.1.4 14.6-7.9 24.5 8.2 9.8 11.8 19.4 7.8 24.5z"/></svg>