<svg xmlns="http://www.w3.org/2000/svg" viewBox="0 0 100 89"><path d="M82.2 28.8c-1.1-.4-2.1-.7-3.2-1 .2-.7.3-1.5.5-2.2 2.4-11.8.8-21.4-4.6-24.5-5.2-3-13.7.1-22.4 7.6-.8.7-1.7 1.5-2.5 2.3-.5-.5-1.1-1-1.7-1.5-9-8-18.1-11.4-23.5-8.3-5.2 3-6.8 12-4.6 23.2.2 1.1.5 2.2.7 3.3-1.3.4-2.5.8-3.7 1.2C6.8 32.6 0 38.4 0 44.4c0 6.2 7.3 12.4 18.3 16.2.9.3 1.8.6 2.7.8-.3 1.2-.6 2.4-.8 3.6-2.1 11-.5 19.8 4.7 22.8 5.4 3.1 14.4-.1 23.2-7.8.7-.6 1.4-1.2 2.1-1.9.9.8 1.8 1.7 2.7 2.5 8.5 7.3 16.9 10.3 22.1 7.3 5.4-3.1 7.1-12.5 4.8-23.9l-.6-2.7c.6-.2 1.3-.4 1.9-.6 11.5-3.8 18.9-9.9 18.9-16.2 0-6.1-7-11.9-17.8-15.7zM55.3 12c7.4-6.4 14.3-9 17.4-7.1 3.3 1.9 4.7 9.7 2.5 19.9-.1.7-.3 1.3-.4 2-4.1-1-8.7-1.7-13.4-2.1-2.7-3.9-5.6-7.5-8.5-10.5.9-.8 1.7-1.5 2.4-2.2zM29.5 49.5c.9 1.7 1.8 3.5 2.8 5.2 1 1.7 2.1 3.4 3.1 5.1-3.3-.4-6.4-.9-9.2-1.5 1-2.8 2.1-5.8 3.3-8.8zm0-10c-1.2-3-2.3-5.9-3.2-8.7 2.9-.6 5.9-1.2 9.1-1.6-1.1 1.7-2.1 3.3-3.1 5-.9 1.8-1.9 3.5-2.8 5.3zm2.3 5c1.3-2.7 2.7-5.4 4.3-8.1 1.5-2.6 3.1-5.2 4.8-7.7 3-.2 6-.3 9.1-.3 3.1 0 6.1.1 9.1.3 1.7 2.5 3.3 5.1 4.8 7.7 1.5 2.6 3 5.3 4.3 8-1.3 2.7-2.8 5.4-4.3 8.1-1.5 2.6-3.1 5.2-4.8 7.7-3 .2-6 .3-9.2.3-3.1 0-6.1-.1-9.1-.3-1.7-2.5-3.4-5.1-4.9-7.8a146 146 0 01-4.1-7.9zm35.9 10.2c1-1.7 2-3.5 2.9-5.3 1.3 3 2.5 6 3.4 8.8-2.9.7-6 1.2-9.3 1.6.9-1.7 2-3.4 3-5.1zm2.8-15.2c-.9-1.8-1.9-3.5-2.9-5.2-1-1.7-2-3.4-3-5 3.2.4 6.2.9 9.1 1.6-.8 2.7-1.9 5.6-3.2 8.6zM50 17.1c2 2.1 3.9 4.5 5.9 7.1-3.9-.2-7.9-.2-11.8 0 2-2.5 3.9-4.9 5.9-7.1zM27 5c3.3-1.9 10.7.8 18.5 7.7.5.4 1 .9 1.5 1.4-2.9 3.1-5.8 6.7-8.5 10.5-4.7.4-9.2 1.1-13.3 2.1-.3-1-.5-2-.7-3.1C22.6 14 23.9 6.8 27 5zm-4.9 52.3c-.8-.2-1.7-.5-2.5-.8-4.9-1.7-8.9-3.8-11.7-6.2-2.5-2.1-3.7-4.2-3.7-5.9 0-3.6 5.4-8.3 14.5-11.4 1.1-.4 2.3-.8 3.4-1.1C23.4 36 25 40.2 27 44.5c-1.9 4.4-3.6 8.7-4.9 12.8zm23.2 19.5c-3.9 3.4-7.8 5.8-11.2 7-3.1 1.1-5.5 1.1-7 .3-3.2-1.8-4.5-8.8-2.7-18.3.2-1.1.5-2.2.7-3.3 4.1.9 8.6 1.6 13.5 2 2.8 3.9 5.7 7.5 8.6 10.6-.6.5-1.3 1.1-1.9 1.7zm4.9-4.8c-2-2.2-4-4.6-6-7.2 1.9.1 3.9.1 5.9.1 2 0 4.1 0 6-.1-2 2.6-4 5-5.9 7.2zm25.9 5.9c-.6 3.2-1.8 5.4-3.3 6.2-3.2 1.8-9.9-.5-17.2-6.8-.8-.7-1.7-1.5-2.5-2.3 2.8-3.1 5.6-6.7 8.4-10.6 4.8-.4 9.4-1.1 13.5-2.1.2.8.4 1.6.5 2.4 1.1 5.1 1.3 9.6.6 13.2zm3.6-21.3c-.5.2-1.1.4-1.7.5-1.3-4-3-8.3-5.1-12.7 2-4.3 3.6-8.5 4.9-12.5l3 .9c9.3 3.2 14.9 7.9 14.9 11.5 0 4-6.1 9-16 12.3z"/><path d="M50 53.3c4.9 0 8.9-4 8.9-8.9s-4-8.9-8.9-8.9-8.9 4-8.9 8.9 4 8.9 8.9 8.9z"/></svg>