<svg xmlns="http://www.w3.org/2000/svg" viewBox="0 0 87.5 100"><path d="M26.9 61.2c-1.6 1-4 2.6-5.8 4.4-3 2.9-3.7 6.9-2.1 7.8 1.5.9 4.9-.2 7.4-2.9C29 67.6 30.1 64 29 59.9c-.1.1-.3.2-.4.2l-.2.1c-.6.5-1.1.8-1.5 1zm44.7-1.3c-.9 2-.9 2.6-.7 2.8 1.3-.5 3.5-1.6 3.5-4.6 0-.5-.1-.9-.3-1.4-1.4 1.1-2.2 2.4-2.5 3.2zm14-5.9c-3.5-.4-6.2.1-8.3 1 .4 1 .7 2.1.7 3.1.1 2.3-1.5 4.1-3.2 5.3-1 .7-2 1.2-2.9 1.5-.7.3-1.6.6-2.3.5-1.5-.3-2.2-1.6-1.2-4.5.5-1.5 2.1-3.9 4.6-5.9-.6-1.2-1.2-2.4-1.5-3.5-.6-2.2-.8-3.5-.8-3.5s-2.1 4.3-4.7 8.1c-.2.2-.3.4-.5.7.5 1.2.9 2.5 1 3.8.1 2.3-.9 4.1-2.6 5.4-.9.7-1.9 1.1-2.7 1.4-.5.2-1.6.6-3.2.7-.8.1-1.7 0-2.1-.3-.6-.5-.7-1.1-.4-1.8.3-.7 2.3-3 4-5.1.5-.5.9-1.1 1.3-1.7 0 0 .3-.4.8-1.1-.6-1.4-1.4-2.8-1.8-4-.6-2.2-.8-3.5-.8-3.5s-2.1 5.3-4.3 9.6c-1.7 3.3-2.8 5.3-3.3 6.2 0 0-.1.1-.2.3l-.1.3c-.6.8-1.8 2.5-3.1 2.5-3.5 0-2.2-7-2.2-7s-1 2.6-2.1 4.8c-.9 1.8-1.8 3.4-3.6 3.4-.5 0-1.4 0-2.1-.7-1.6-1.5-2.8-5.3-2.6-8.3.2-2.5.6-4.3 1.1-5.7-1.1.6-2.1 1.2-3.2 1.8l-1.7 1 .1.1c1.4 2.7 1.8 8.8-1.3 13.4s-8.9 7.4-14.5 5.9c-1.8-.5-4.5-4.2-2.2-9.5 2.1-4.6 10.4-9 12.6-10l.6-.3c-4.4-3.8-15.3-9-16.8-16.9-.4-2.2.6-7.6 7.2-13.7 5.5-5.2 13.2-9.1 20.2-11.6C49.4 12 62 14.5 63.9 22c1.9 7.5-4.6 16.4-12.9 19.6-7.4 2.9-13.5 2.4-16 1.6-2.9-.9-4.5-2.8-4.9-3.9-.2-.4-.4-1.1 0-1.4.3-.1.4-.1 1.1.7.7.8 3.4 2.8 8.6 2.2 13.7-1.5 21.9-12.2 19.3-17.9-1.8-4-12.4-5.8-25.5.8-16.1 8-16.9 14.6-17.1 17.1-.4 6.9 8.5 10.5 13.3 15.7l.2.2c.9-.5 1.9-1 2.8-1.5 1.9-1.1 3.8-2.1 5.8-3.2 1.7-2.5 5.1-5.2 7.6-5.2 4 0 2.6 5.7 2.6 5.7s.1-.5.2-.5.5-.8 1.8-.3 1 1.3 1 1.4c0 .2-1.5 5.2-2.1 8.5-.3 1.6-.1 2.7 0 2.7s.4-.4.6-.8c0 0 .2-.3.5-.9l.1-.1c.5-1 1-1.9 1.4-2.9 1.1-2.4 5.3-11.8 5.7-12.8.4-1 .5-2.1.7-2.6.2-.5 1.7-.8 3.4-.8s1.9.8 1.9.9c0 .2-.8 2.2-1 3.7-.2 1.5 0 2.2.2 3.4.1.8.6 1.8 1.2 3 1.8-2.9 5-8.5 5.3-10.1.2-1.1.5-2.1.7-2.6.2-.5 1.7-.8 3.4-.8s1.9.8 1.9.9c0 .2-.8 2.2-1 3.7-.2 1.4 0 2.2.2 3.4.1 1 .9 2.4 1.7 4 2.2-1.1 4.8-1.8 7.8-1.8 1.2 0 2.7.1 3.4.4v-24c0-1.7-.9-3.3-2.3-4.1L46 .6c-1.5-.8-3.3-.8-4.7 0l-39 22.6C.8 24.1 0 25.7 0 27.4v45.3c0 1.7.8 3.3 2.2 4.1l39.1 22.6c1.5.8 3.3.8 4.7 0l39.1-22.6c1.5-.8 2.3-2.4 2.3-4.1V54.3c-.4-.1-1.1-.2-1.8-.3zm-42.2-2.4c-.8.9-2.3 3.4-2.9 5.4-1.3 4-.8 8.1.2 8.4 1.1.3 2.9-5.1 3.8-7.2.5-1.3 2.6-7.2 2.2-8-.4-.6-1.9-.1-3.3 1.4zm15.3 13.6s-.3.3-.2.3c.2.1.5 0 .9-.2 1-.7 3.4-2.3 3.4-4.7v-.2c-.5.6-1 1.3-1.5 1.9-.8.9-2.6 2.9-2.6 2.9z"/></svg>