<?xml version="1.0" encoding="UTF-8"?>
<svg id="Layer_1" data-name="Layer 1" xmlns="http://www.w3.org/2000/svg" version="1.1" viewBox="0 0 100 100">
  <defs>
    <style>
      .cls-1 {
        fill: none;
      }

      .cls-1, .cls-2, .cls-3 {
        stroke-width: 0px;
      }

      .cls-2 {
        fill: #000;
      }

      .cls-3 {
        fill: #707070;
      }
    </style>
  </defs>
  <g>
    <path class="cls-1" d="M48.2,4.5c-.5-.4-1.1-.6-1.6-.6h0c-9.2,0-14.3,12-16.5,19.4l7.8-2.4c1.9-9.7,6.2-14.5,10.3-16.4Z"/>
    <path class="cls-1" d="M53.9,6.9c.7,2,1.1,4.6,1.1,7.7s0,.7,0,1l4.8-1.5c-1.2-3.7-3.1-6.9-5.9-7.3Z"/>
    <path class="cls-1" d="M41.8,19.8c3.4-1,6.8-2.1,9.9-3.1,0-.2,0-.4,0-.6,0-3.8-.5-6.6-1.3-8.6-3.1,1.3-6.7,4.9-8.6,12.2Z"/>
    <path class="cls-2" d="M82.7,19.8h0c0-.5-.5-.8-.9-.8-.4,0-8-.6-8-.6,0,0-5.3-5.2-5.9-5.8-.6-.6-1.7-.4-2.2-.3,0,0-1.2.4-3,.9-1.8-5.1-4.9-9.7-10.4-9.7s-.3,0-.5,0c-1.6-2.1-3.5-3-5.2-3-12.8,0-18.8,15.9-20.8,24-5,1.5-8.5,2.6-8.9,2.8-2.8.9-2.9,1-3.2,3.6-.3,2-7.5,58-7.5,58l56.4,10.6,30.6-6.6s-10.7-72.5-10.8-73ZM51.7,16.1c0,.2,0,.4,0,.6-3.1,1-6.5,2-9.9,3.1,1.9-7.3,5.5-10.9,8.6-12.2.8,2,1.3,4.8,1.3,8.6ZM46.6,4h0c.6,0,1.1.2,1.6.6-4.1,1.9-8.5,6.8-10.3,16.4l-7.8,2.4c2.2-7.4,7.3-19.4,16.5-19.4ZM48.8,47.1s-3.3-1.8-7.3-1.8c-5.9,0-6.2,3.7-6.2,4.7,0,5.1,13.3,7.1,13.3,19.1s-6,15.5-14.1,15.5-14.6-6-14.6-6l2.6-8.6s5.1,4.4,9.4,4.4,3.9-2.2,3.9-3.8c0-6.7-10.9-7-10.9-18s6.6-18.2,20-18.2,7.7,1.5,7.7,1.5l-3.8,11.2ZM55,15.7c0-.3,0-.7,0-1,0-3.2-.4-5.7-1.1-7.7,2.8.4,4.7,3.6,5.9,7.3l-4.8,1.5Z"/>
  </g>
  <path class="cls-3" d="M81.8,19c-.4,0-8-.6-8-.6,0,0-5.3-5.2-5.9-5.8-.2-.2-.5-.3-.8-.4l-4.3,87.2,30.6-6.6s-10.7-72.5-10.8-73c0-.5-.5-.8-.9-.8"/>
</svg>