<?xml version="1.0" encoding="UTF-8"?>
<svg id="Layer_1" data-name="Layer 1" xmlns="http://www.w3.org/2000/svg" version="1.1" viewBox="0 0 100 100">
  <defs>
    <style>
      .cls-1 {
        fill: #000;
        stroke-width: 0px;
      }
    </style>
  </defs>
  <path class="cls-1" d="M50,20.3c-13.2,0-21.5,6.6-24.8,19.8,5-6.6,10.7-9.1,17.3-7.4,3.8.9,6.5,3.7,9.4,6.7,4.9,4.9,10.5,10.6,22.7,10.6s21.5-6.6,24.8-19.8c-5,6.6-10.7,9.1-17.3,7.4-3.8-.9-6.5-3.7-9.4-6.7-4.9-4.9-10.5-10.6-22.7-10.6ZM25.2,50c-13.2,0-21.5,6.6-24.8,19.8,5-6.6,10.7-9.1,17.3-7.4,3.8.9,6.5,3.7,9.4,6.7,4.9,4.9,10.5,10.6,22.7,10.6s21.5-6.6,24.8-19.8c-5,6.6-10.7,9.1-17.3,7.4-3.8-.9-6.5-3.7-9.4-6.7-4.9-4.9-10.5-10.6-22.7-10.6Z"/>
</svg>