<svg xmlns="http://www.w3.org/2000/svg" viewBox="0 0 100 100"><path d="M11.7 30c-.4 0-.9.2-1.2.5l-10 10c-.7.7-.7 1.7 0 2.4l10 10c.3.3.7.5 1.2.5H45v45c0 .9.7 1.7 1.7 1.7h6.7c.9 0 1.7-.7 1.7-1.7V40h33.3c.4 0 .9-.2 1.2-.5l10-10c.7-.7.7-1.7 0-2.4l-10-10c-.3-.3-.7-.5-1.2-.5H55v-15c0-.9-.7-1.6-1.7-1.6h-6.7c-.9 0-1.6.7-1.6 1.7v1.7H11.7c-.4 0-.9.2-1.2.5l-10 10c-.7.7-.7 1.7 0 2.4l10 10c.3.3.7.5 1.2.5H45V30H11.7zm.7 20L4 41.7l8.3-8.3H45V50H12.4zm75.2-30l8.3 8.3-8.3 8.3H55V20h32.6zM48.3 3.3h3.3v93.3h-3.3V3.3zm-35.9 20L4 15l8.3-8.3H45v16.7H12.4z"/><path d="M13.3 13.3H20v3.3h-6.7zM23.3 13.3h18.3v3.3H23.3zM13.3 40h18.3v3.3H13.3zM58.3 26.7h15V30h-15zM76.7 26.7h10V30h-10z"/></svg>