<svg xmlns="http://www.w3.org/2000/svg" viewBox="0 0 100 100"><path d="M61.7 54.6c4.5-6.5 2.9-15.4-3.5-19.9-6.5-4.5-15.4-2.9-19.9 3.5-3.4 4.9-3.4 11.4 0 16.4 1.1-3.1 3.4-5.6 6.4-7-2.7-2.9-2.4-7.4.5-10.1 2.9-2.7 7.4-2.4 10.1.5 2.5 2.7 2.5 6.9 0 9.6 3 1.4 5.3 3.9 6.4 7z"/><path d="M62 59.6l-.1.1c-6.8 6.1-17.1 6.1-23.9 0l-.1-.1c-1.8-1.7-3.3-3.7-4.3-6H0v44.6c0 1 .8 1.8 1.8 1.8h96.4c1 0 1.8-.8 1.8-1.8V53.6H66.4c-1 2.3-2.5 4.3-4.4 6zM30.4 96.4h-25c-1 0-1.8-.8-1.8-1.8s.8-1.8 1.8-1.8h25c1 0 1.8.8 1.8 1.8-.1 1-.9 1.8-1.8 1.8zm0-7.1h-25c-1 0-1.8-.8-1.8-1.8s.8-1.8 1.8-1.8h25c1 0 1.8.8 1.8 1.8s-.9 1.8-1.8 1.8zm1.7-10.7c0 2-1.6 3.6-3.6 3.6H7.1c-2 0-3.6-1.6-3.6-3.6v-7.1c0-2 1.6-3.6 3.6-3.6h21.4c2 0 3.6 1.6 3.6 3.6v7.1zm30.4 10.7h-25c-1 0-1.8-.8-1.8-1.8s.8-1.8 1.8-1.8h25c1 0 1.8.8 1.8 1.8s-.8 1.8-1.8 1.8zm1.8-10.7c0 2-1.6 3.6-3.6 3.6H39.3c-2 0-3.6-1.6-3.6-3.6v-7.1c0-2 1.6-3.6 3.6-3.6h21.4c2 0 3.6 1.6 3.6 3.6v7.1zm3.6-7.2c0-2 1.6-3.6 3.6-3.6h21.4c2 0 3.6 1.6 3.6 3.6v7.1c0 2-1.6 3.6-3.6 3.6H71.4c-2 0-3.6-1.6-3.6-3.6v-7.1zm1.7 14.3h25c1 0 1.8.8 1.8 1.8s-.8 1.8-1.8 1.8h-25c-1 0-1.8-.8-1.8-1.8s.9-1.8 1.8-1.8zm0 7.2h25c1 0 1.8.8 1.8 1.8s-.8 1.8-1.8 1.8h-25c-1 0-1.8-.8-1.8-1.8.1-1 .9-1.8 1.8-1.8zM52.5 40.3c1.4 1.4 1.4 3.7 0 5.1-1.4 1.4-3.7 1.4-5.1 0-1.4-1.4-1.4-3.7 0-5.1 1.5-1.4 3.7-1.4 5.1 0"/><path d="M41.2 57.7c5.2 4.1 12.4 4.1 17.6 0-.7-4.9-5.1-8.3-10-7.6-4 .5-7 3.6-7.6 7.6z"/><path d="M0 50h32.5c-2-9.7 4.2-19.4 13.9-21.1 9.7-2 19.1 4.3 21.1 13.9.5 2.4.5 4.8 0 7.1H100v-32H0V50zM98.2 0H1.8C.8 0 0 .8 0 1.8v12.5h100V1.8c0-1-.8-1.8-1.8-1.8zM8.4 8.4c-.7.7-1.8.7-2.5 0s-.7-1.8 0-2.5 1.8-.7 2.5 0c.3.3.5.8.5 1.3 0 .4-.2.9-.5 1.2z"/></svg>