<svg xmlns="http://www.w3.org/2000/svg" viewBox="0 0 100 100"><path d="M67.5 44.1c-2.7-4.1-1.5-9.7 2.7-12.3s9.7-1.5 12.3 2.7 1.5 9.7-2.7 12.3c-.9.6-2 1-3 1.2v3.8h12.5c1 0 1.8-.8 1.8-1.8V28.6c0-1-.8-1.8-1.8-1.8H60.7c-1 0-1.8.8-1.8 1.8V50c0 .4.2.8.4 1.1l8.2-7zM26.8 69.8c2.5.5 4.6 2 5.8 4.2l8.2-7c-.3-.6-.9-.9-1.5-.9H26.8v3.7zM41.507 56.207c2.1 2.1 2.1 5.5 0 7.6-2.1 2.1-5.5 2.1-7.6 0-2.1-2.1-2.1-5.5 0-7.6s5.5-2.1 7.6 0M23.2 48c-4.8-1-7.9-5.7-7-10.5 1-4.8 5.7-7.9 10.5-7 4.8 1 7.9 5.7 7 10.5-.7 3.5-3.5 6.2-7 7v3.8h12.5c1 0 1.8-.8 1.8-1.8V28.6c0-1-.8-1.8-1.8-1.8H10.7c-1 0-1.8.8-1.8 1.8V50c0 1 .8 1.8 1.8 1.8h12.5V48z"/><path d="M73.2 48c-1.1-.2-2.2-.7-3.2-1.4l-6 5.1h9.2V48zM119.507 56.207c2.1 2.1 2.1 5.5 0 7.6-2.1 2.1-5.5 2.1-7.6 0-2.1-2.1-2.1-5.5 0-7.6s5.5-2.1 7.6 0M119.507 117.507c2.1 2.1 2.1 5.5 0 7.6-2.1 2.1-5.5 2.1-7.6 0-2.1-2.1-2.1-5.5 0-7.6 2.1-2.1 5.5-2.1 7.6 0M76.8 69.8c4.8 1 7.9 5.7 7 10.5-1 4.8-5.7 7.9-10.5 7-4.8-1-7.9-5.7-7-10.5.7-3.5 3.5-6.2 7-7V66H60.7c-1 0-1.8.8-1.8 1.8v21.4c0 1 .8 1.8 1.8 1.8h28.6c1 0 1.8-.8 1.8-1.8V67.9c0-1-.8-1.8-1.8-1.8H76.8v3.7zM41.507 117.507c2.1 2.1 2.1 5.5 0 7.6-2.1 2.1-5.5 2.1-7.6 0-2.1-2.1-2.1-5.5 0-7.6 2.1-2.1 5.5-2.1 7.6 0"/><path d="M0 98.2c0 1 .8 1.8 1.8 1.8h96.4c1 0 1.8-.8 1.8-1.8V17.9H0v80.3zm5.4-30.3c0-3 2.4-5.4 5.4-5.4h12.5v-7.1H10.7c-3 0-5.4-2.4-5.4-5.4V28.6c0-3 2.4-5.4 5.4-5.4h28.6c3 0 5.4 2.4 5.4 5.4V50c0 3-2.4 5.4-5.4 5.4H26.8v7.1h12.5c1.7 0 3.3.8 4.3 2.2l13.1-11.2c-.8-1-1.3-2.2-1.3-3.4V28.6c0-3 2.4-5.4 5.4-5.4h28.6c3 0 5.4 2.4 5.4 5.4V50c0 3-2.4 5.4-5.4 5.4H76.8v7.1h12.5c3 0 5.4 2.4 5.4 5.4v21.4c0 3-2.4 5.4-5.4 5.4H60.7c-3 0-5.4-2.4-5.4-5.4V67.9c0-3 2.4-5.4 5.4-5.4h12.5v-7.1H60.7c-.2 0-.5 0-.7-.1L44.6 68.4v20.9c0 3-2.4 5.4-5.4 5.4H10.7c-3 0-5.4-2.4-5.4-5.4V67.9z"/><path d="M10.7 91.1h28.6c1 0 1.8-.8 1.8-1.8V71.5l-7.2 6.2c0 .3.1.6.1.9 0 4.9-4 8.9-8.9 8.9s-8.9-4-8.9-8.9c0-4.2 3-7.9 7.1-8.7v-3.8H10.7c-1 0-1.8.8-1.8 1.8v21.4c0 1 .8 1.8 1.8 1.8zM98.2 0H1.8C.8 0 0 .8 0 1.8v12.5h100V1.8c0-1-.8-1.8-1.8-1.8zM8.8 7.8c-.1.2-.2.4-.4.6-.7.7-1.8.7-2.5 0-.2-.2-.3-.4-.4-.6-.2-.4-.2-.9 0-1.4.1-.2.2-.4.4-.5.7-.7 1.8-.7 2.5 0 .2.1.3.3.4.6.2.4.2.9 0 1.3z"/></svg>