<svg version="1.1" id="Layer_1" xmlns="http://www.w3.org/2000/svg" x="0" y="0" viewBox="0 0 100 66" xml:space="preserve"><path class="st0" d="M22.6 55.5c0 2 1.6 3.6 3.5 3.6s3.5-1.6 3.5-3.6c0-.3 0-.6-.1-.8h-6.9v.8z"/><ellipse class="st0" cx="79.1" cy="55.5" rx="3.5" ry="3.6"/><path class="st0" d="M98.8 63.6H83.5c2.8-1.6 4.7-4.6 4.7-8.1 0-5.2-4.1-9.3-9.1-9.3S70 50.3 70 55.5c0 3.5 1.9 6.6 4.7 8.1H30.5c2.5-1.4 4.3-3.9 4.7-6.9L34 55c-.2-.3-.5-.4-.7-.4H32c0 .3.1.5.1.8 0 3.3-2.6 6-5.9 6-3.2 0-5.9-2.7-5.9-6 0-.3 0-.6.1-.8h-1c-.3 0-.5.1-.7.4l-1.5 2c.5 2.9 2.2 5.3 4.6 6.6H1.2c-.6 0-1.2.5-1.2 1.2S.5 66 1.2 66h97.7c.6 0 1.2-.5 1.2-1.2-.1-.6-.6-1.2-1.3-1.2zm-19.7-2.1c-3.2 0-5.9-2.7-5.9-6s2.6-6 5.9-6c3.3 0 5.9 2.7 5.9 6s-2.7 6-5.9 6z"/><path class="st0" d="M1.9 50.5c.2.6.3 1.3.5 1.9.7 2.5 3.1 4.3 5.7 4.3h5.7c.4 0 .7-.2 1-.5l1.8-2.5c.6-.9 1.6-1.4 2.6-1.4h13.9c1 0 2 .5 2.6 1.4l1.8 2.5c.2.3.6.5.9.5h29.1c0-.4-.1-.8-.1-1.2 0-6.4 5.2-11.7 11.5-11.7S90.4 49 90.4 55.5c0 .4 0 .8-.1 1.2H94c3.3 0 6-2.7 6-6.1V38.2c0-1.3-.1-2.6-.5-3.8H0c0 5.6.7 11.1 1.8 15.8 0 0 .1.1.1.3zm89.7-5.3c0-1.7 1.3-3 3-3h3.1v7.3h-3.1c-1.6 0-3-1.4-3-3v-1.3zM98.5 31.3l-7.2-15.8c-1.4-3-4.4-5-7.7-5h-27V7.6h2.6c.6 0 1.2-.5 1.2-1.2s-.5-1.2-1.2-1.2h-2.6V2.3h2.6c.6 0 1.2-.5 1.2-1.2S59.8 0 59.2 0H13.4c-.6 0-1.2.5-1.2 1.2s.5 1.2 1.2 1.2H16v2.9h-2.6c-.6 0-1.2.5-1.2 1.2s.5 1.2 1.2 1.2H16v2.9H8.2c-2.7 0-5.1 1.8-5.8 4.4C1 20.1.2 26 0 32h98.8c-.1-.2-.2-.5-.3-.7zm-80.2-29h35.9v2.9H18.3V2.3zm0 5.3h35.9v2.9H18.3V7.6zm8.2 20.9H7.8c.3-3.2.8-9.3 1.6-12.1h17.1v12.1zm37.9 0H31.7V16.4h32.7v12.1zm5.3 0V16.4h14c.4 0 .8.2.9.6l3.8 11.5H69.7z"/></svg>