<svg xmlns="http://www.w3.org/2000/svg" viewBox="0 0 100 100"><path d="M98.2 0H1.8C.8 0 0 .8 0 1.8v12.5h100V1.8c0-1-.8-1.8-1.8-1.8zM8.8 7.8c-.1.2-.2.4-.4.6-.7.7-1.8.7-2.5 0-.2-.2-.3-.4-.4-.6-.2-.4-.2-.9 0-1.4.1-.2.2-.4.4-.5.7-.7 1.8-.7 2.5 0 .2.1.3.3.4.6.2.4.2.9 0 1.3zM51.7 55.3c1 .6 1.7 1.6 1.7 2.9 0 1.8-1.5 3.3-3.3 3.3-1.8 0-3.3-1.5-3.3-3.3 0-1.2.7-2.3 1.7-2.9V46l-8.2 14 4.3 10.7h11.1L59.8 60l-8.2-14v9.3zM57.5 74.1H42.5c-.5 0-.8.4-.8.8s.4.8.8.8H57.5c.5 0 .8-.4.8-.8s-.3-.8-.8-.8zM45 86.9c0 .8.6 1.4 1.4 1.4h7.3c.8 0 1.4-.6 1.4-1.4v-7.8H45v7.8z"/><path d="M0 17.9v80.3c0 1 .8 1.8 1.8 1.8h96.4c1 0 1.8-.8 1.8-1.8V17.9H0zm63.2 42.6L59 71c1.6.6 2.7 2.1 2.7 3.9 0 2-1.4 3.7-3.3 4.1v7.9c0 2.6-2.1 4.7-4.7 4.7h-7.3c-2.6 0-4.7-2.1-4.7-4.7V79c-1.9-.4-3.3-2.1-3.3-4.1 0-1.8 1.1-3.3 2.7-3.9l-4.2-10.5c-.2-.5-.2-1 .1-1.5l11.7-20c.3-.5.8-.8 1.4-.8.6 0 1.1.3 1.4.8l11.7 20c.2.5.2 1 0 1.5zm18.4-5.2c1.1.6 1.8 1.7 1.8 3 0 1.8-1.5 3.3-3.3 3.3-1.8 0-3.3-1.5-3.3-3.3 0-1.2.6-2.2 1.5-2.8C76.9 42 66.2 31.3 52.8 30c-.6.9-1.6 1.5-2.8 1.5-1.2 0-2.2-.6-2.8-1.5-13.4 1.3-24.1 12-25.5 25.5.9.6 1.5 1.6 1.5 2.8 0 1.8-1.5 3.3-3.3 3.3-1.8 0-3.3-1.5-3.3-3.3 0-1.3.7-2.4 1.8-3 1-11.2 7.8-20.7 17.4-25.4h-13c-.6 1-1.6 1.7-2.9 1.7-1.8 0-3.3-1.5-3.3-3.3 0-1.8 1.5-3.3 3.3-3.3 1.2 0 2.3.7 2.9 1.7h24.3c.6-1 1.6-1.7 2.9-1.7s2.3.7 2.9 1.7h24.3c.6-1 1.6-1.7 2.9-1.7 1.8 0 3.3 1.5 3.3 3.3 0 1.8-1.5 3.3-3.3 3.3-1.2 0-2.3-.7-2.9-1.7h-13c9.6 4.7 16.4 14.2 17.4 25.4z"/></svg>