<svg xmlns="http://www.w3.org/2000/svg" viewBox="0 0 100 100"><path d="M98.2 0H1.8C.8 0 0 .8 0 1.8v12.5h100V1.8c0-1-.8-1.8-1.8-1.8zM8.8 7.8c-.1.2-.2.4-.4.6-.7.7-1.8.7-2.5 0-.2-.2-.3-.4-.4-.6-.2-.4-.2-.9 0-1.4.1-.2.2-.4.4-.5.7-.7 1.8-.7 2.5 0 .2.1.3.3.4.6.2.4.2.9 0 1.3zM0 17.9v80.3c0 1 .8 1.8 1.8 1.8h96.4c1 0 1.8-.8 1.8-1.8V17.9H0zm60.8 5.3h28.6c1.8 0 3.3.8 4.3 2.1l-18.5 11-18.6-11.1c1-1.2 2.5-2 4.2-2zm24.7 59.2c-2.5-1.5-4.4-2.5-6.7-3.6v-.2c2.1-1.1 4.1-2.2 6.7-3.7l9.2-5.2v18l-9.2-5.3zm-10.4-7L56.7 64.3c.8-.9 2-1.6 3.3-1.7h30c1.4.2 2.7.9 3.5 2L75.1 75.4zm-39.3 6c-2.5-1.5-4.4-2.5-6.7-3.6v-.2c2.1-1.1 4.1-2.2 6.7-3.7l8.8-5v17.6l-8.8-5.1zm8.9-33.9l-8.9-5.2c-2.5-1.5-4.4-2.5-6.7-3.6v-.2c2.1-1.1 4.1-2.2 6.7-3.7l8.9-5v17.7zm-.8 5.4c-1 1.5-2.6 2.5-4.6 2.5H10.7c-1.8 0-3.3-.8-4.3-2.1l19.3-11.7 18.2 11.3zm-33.2 9.6l29.4.1c1.1.2 2.1.7 2.9 1.4L25.4 74.4 7.5 63.6c.9-.7 2-1.1 3.2-1.1zm44.6 6.8l8.5 4.6c3.5 2.1 5.6 3.2 7.9 4.3v.1c-2.3 1.2-4.5 2.5-7.8 4.6l-8.5 4.9V69.3zm34.1-13.9H60.7c-.2 0-.5 0-.7-.1l-.1.1h-5.4l.5-.5 20.4-12.4 17.9 11.2c-1 1.1-2.4 1.7-3.9 1.7zM63.8 34.9c3.5 2.1 5.6 3.2 7.9 4.3v.1c-2.3 1.2-4.5 2.5-7.8 4.6l-8.4 4.9V30.3l8.3 4.6zM39.3 23.2c1.5 0 2.9.6 3.9 1.6L25.4 35.4l-18.1-11c.9-.8 2.1-1.2 3.4-1.2h28.6zm-34 5.9l8.7 4.8c3.5 2.1 5.6 3.2 7.9 4.3v.1c-2.3 1.2-4.5 2.5-7.8 4.6L5.3 48V29.1zm0 39.1L14 73c3.5 2.1 5.6 3.2 7.9 4.3v.1c-2.3 1.2-4.5 2.5-7.8 4.6l-8.8 5.1V68.2zm33.9 26.5H10.7c-1.8 0-3.4-.9-4.4-2.3l19.4-11.8L43.9 92c-1 1.6-2.7 2.7-4.7 2.7zm50.1 0H60.7c-1.6 0-3-.7-3.9-1.7l18.7-11.3 17.9 11.2c-1 1.1-2.5 1.8-4.1 1.8zm5.5-45.9l-9.3-5.4c-2.5-1.5-4.4-2.5-6.7-3.6v-.2c2.1-1.1 4.1-2.2 6.7-3.7l9.3-5.3v18.2z"/></svg>