<svg xmlns="http://www.w3.org/2000/svg" viewBox="0 0 100 100"><path d="M7.1 50c0 17 9.9 31.6 24.2 38.6L10.8 32.5C8.4 38 7.1 44 7.1 50zM79 47.8c0-5.3-1.9-9-3.5-11.8-2.2-3.5-4.2-6.5-4.2-10.1 0-3.9 3-7.6 7.2-7.6h.6C71.5 11.3 61.3 7 50.1 7c-15 0-28.2 7.7-35.8 19.3 1 0 2 .1 2.8.1 4.5 0 11.4-.5 11.4-.5 2.3-.1 2.6 3.3.3 3.5 0 0-2.3.3-4.9.4l15.6 46.5 9.4-28.2L42 29.9c-2.3-.1-4.5-.4-4.5-.4-2.3-.1-2-3.7.3-3.5 0 0 7.1.5 11.3.5 4.5 0 11.4-.5 11.4-.5 2.3-.1 2.6 3.3.3 3.5 0 0-2.3.3-4.9.4L71.4 76l4.3-14.3c1.8-5.9 3.3-10.2 3.3-13.9zm-28.2 5.9L37.9 91.1c3.9 1.2 8 1.7 12.1 1.7 5 0 9.8-.9 14.2-2.4l-.3-.6-13.1-36.1zm36.8-24.3c.2 1.4.3 2.8.3 4.4 0 4.4-.8 9.2-3.3 15.4l-13 37.9C84.3 79.6 92.9 65.8 92.9 50c0-7.5-1.9-14.5-5.3-20.6zM50 0C22.4 0 0 22.4 0 50s22.4 50 50 50 50-22.4 50-50S77.6 0 50 0zm0 97.7C23.7 97.7 2.3 76.3 2.3 50 2.3 23.7 23.7 2.3 50 2.3c26.3 0 47.7 21.4 47.7 47.7 0 26.3-21.4 47.7-47.7 47.7z"/></svg>