<?xml version="1.0" encoding="utf-8"?>
<!-- Generator: Adobe Illustrator 24.1.2, SVG Export Plug-In . SVG Version: 6.00 Build 0)  -->
<svg version="1.1" id="Layer_1" xmlns="http://www.w3.org/2000/svg" xmlns:xlink="http://www.w3.org/1999/xlink" x="0px" y="0px"
	 viewBox="0 0 512 512" style="enable-background:new 0 0 512 512;" xml:space="preserve">
<style type="text/css">
	.st0{fill:#1A1A1A;}
	.st1{fill:#CCCCCC;}
</style>
<g>
	<circle class="st0" cx="256" cy="256" r="256"/>
</g>
<path class="st1" d="M315,109.2c-20.6,0-39.8,4.1-59,12.3c-19.2-8.2-38.4-12.3-59-12.3c-80.9,0-146.8,65.8-146.8,146.8
	S116.1,402.8,197,402.8c20.6,0,39.8-4.1,59-12.3c19.2,8.2,38.4,12.3,59,12.3c80.9,0,146.8-65.8,146.8-146.8S395.9,109.2,315,109.2z
	 M212.1,361.6c-5.5,1.4-9.6,1.4-15.1,1.4c-59,0-107-48-107-107s48-107,107-107c5.5,0,11,0,15.1,1.4c-28.8,27.4-45.3,65.8-45.3,105.6
	C168.2,295.8,183.3,334.2,212.1,361.6z M343.8,256c0-39.8-16.5-78.2-45.3-105.6c5.5-1.4,9.6-1.4,15.1-1.4c59,0,107,48,107,107
	s-48,107-107,107c-5.5,0-11,0-15.1-1.4C327.3,334.2,343.8,295.8,343.8,256z M304,256c0,35.7-17.8,68.6-48,89.2
	c-30.2-19.2-48-52.1-48-89.2c0-35.7,17.8-68.6,48-89.2C286.2,187.4,304,220.3,304,256z"/>
</svg>
